<svg xmlns="http://www.w3.org/2000/svg" viewBox="0 0 120 120">
  <rect width="120" height="120" rx="60" fill="#0d1110"/>
  <g fill="none" stroke-linecap="round">
    <path d="M14 60 C30 43, 40 43, 53 60 C67 77, 78 77, 106 60" stroke="#2f6fe4" stroke-width="2.2"/>
    <path d="M14 60 C30 49, 40 49, 53 60 C67 71, 78 71, 106 60" stroke="#2f6fe4" stroke-width="1.5"/>
    <path d="M14 60 C30 55, 40 55, 53 60 C67 65, 78 65, 106 60" stroke="#2f6fe4" stroke-width="1.2"/>
    <path d="M14 60 C31 76, 40 76, 53 60 C67 44, 78 44, 106 60" stroke="#ef2b16" stroke-width="2.2"/>
    <path d="M14 60 C31 69, 40 69, 53 60 C67 51, 78 51, 106 60" stroke="#ef2b16" stroke-width="1.5"/>
    <path d="M14 60 C31 65, 40 65, 53 60 C67 55, 78 55, 106 60" stroke="#ef2b16" stroke-width="1.2"/>
  </g>
  <circle cx="60" cy="60" r="4" fill="#fff"/>
</svg>